/* XPM */
static char *_8910c9c51264832aa2e2775823fc65d7CsD8Cib0TPpIFbJ[] = {
/* columns rows colors chars-per-pixel */
"61 64 207 2 ",
"   c #0C0709",
".  c #0D0A0D",
"X  c #110705",
"o  c #160906",
"O  c #1B0904",
"+  c #120B0A",
"@  c #17100C",
"#  c #1B120C",
"$  c #0E0C13",
"%  c #120D15",
"&  c #140F17",
"*  c #1A1115",
"=  c #14121D",
"-  c #1A1319",
";  c #210A03",
":  c #2D0E04",
">  c #240D08",
",  c #330F05",
"<  c #35130B",
"1  c #26161A",
"2  c #361914",
"3  c #332215",
"4  c #3B2718",
"5  c #1B1623",
"6  c #1A1724",
"7  c #1B1929",
"8  c #291C27",
"9  c #221C2D",
"0  c #331E24",
"q  c #321F28",
"w  c #231F31",
"e  c #2C2226",
"r  c #2B202F",
"t  c #382528",
"y  c #242136",
"u  c #292439",
"i  c #2B253B",
"p  c #342534",
"a  c #3E2934",
"s  c #33293D",
"d  c #3E2A3B",
"f  c #441507",
"g  c #44180A",
"h  c #531A0B",
"j  c #5D1D0C",
"k  c #481B14",
"l  c #591E11",
"z  c #611F0D",
"x  c #432D1B",
"c  c #59241D",
"v  c #48301D",
"b  c #6B220F",
"n  c #6B2413",
"m  c #792916",
"M  c #462725",
"N  c #5A2825",
"B  c #493225",
"V  c #563923",
"C  c #5A3B24",
"Z  c #412834",
"A  c #422B3B",
"S  c #48373B",
"D  c #523536",
"F  c #602A24",
"G  c #5C4131",
"H  c #6C482B",
"J  c #724C2E",
"K  c #664737",
"L  c #774F30",
"P  c #7B5335",
"I  c #2D2A44",
"U  c #332B44",
"Y  c #3A2C45",
"T  c #342E4A",
"R  c #34304E",
"E  c #3D324D",
"W  c #3C3454",
"Q  c #3A3658",
"!  c #3A375A",
"~  c #452F41",
"^  c #473045",
"/  c #493246",
"(  c #43334C",
")  c #4B354D",
"_  c #423553",
"`  c #4C3650",
"'  c #4D3955",
"]  c #423759",
"[  c #443A5C",
"{  c #4B3B5C",
"}  c #503A57",
"|  c #513C5B",
" . c #433D64",
".. c #4A3E63",
"X. c #533F61",
"o. c #544144",
"O. c #4E4259",
"+. c #454067",
"@. c #46416B",
"#. c #4D426A",
"$. c #544165",
"%. c #56446B",
"&. c #59466E",
"*. c #58486F",
"=. c #4B4672",
"-. c #4E4976",
";. c #554771",
":. c #594770",
">. c #534975",
",. c #5B4A74",
"<. c #544C7B",
"1. c #5D4D7C",
"2. c #5F507F",
"3. c #832A14",
"4. c #8C2D16",
"5. c #802E1C",
"6. c #922F17",
"7. c #82321A",
"8. c #963119",
"9. c #9A3119",
"0. c #A7371C",
"q. c #A9361C",
"w. c #B73B1F",
"e. c #823E22",
"r. c #BD3E20",
"t. c #C23F21",
"y. c #844B2B",
"u. c #815634",
"i. c #855935",
"p. c #895D3C",
"a. c #8F603D",
"s. c #94633B",
"d. c #99663D",
"f. c #BF6D3F",
"g. c #C64122",
"h. c #CB4223",
"j. c #C04A27",
"k. c #D24525",
"l. c #DA4726",
"z. c #DE4927",
"x. c #C15C33",
"c. c #E14927",
"v. c #E34A28",
"b. c #E3542D",
"n. c #E4582F",
"m. c #E45C32",
"M. c #E46134",
"N. c #E56738",
"B. c #E56C3B",
"V. c #E6723F",
"C. c #A36D42",
"Z. c #AC7346",
"A. c #B17647",
"S. c #B57949",
"D. c #BA7C4B",
"F. c #C27746",
"G. c #E67441",
"H. c #E67A45",
"J. c #E77E48",
"K. c #BF804D",
"L. c #C3824E",
"P. c #CA8751",
"I. c #CF8A53",
"U. c #D38D55",
"Y. c #D89157",
"T. c #DD9359",
"R. c #E7844C",
"E. c #E8844C",
"W. c #E88A51",
"Q. c #E99256",
"!. c #E2975B",
"~. c #E99559",
"^. c #E69A5D",
"/. c #EA9C5E",
"(. c #524E81",
"). c #5B4F81",
"_. c #575185",
"`. c #5B5185",
"'. c #5B558C",
"]. c #5E5992",
"[. c #615284",
"{. c #64568B",
"}. c #65588F",
"|. c #665A92",
" X c #685C96",
".X c #645E9A",
"XX c #6A5E99",
"oX c #65609F",
"OX c #6B609D",
"+X c #6B619E",
"@X c #6C619E",
"#X c #6761A0",
"$X c #6D63A1",
"%X c #6E64A4",
"&X c #6F65A5",
"*X c #6E66A8",
"=X c #6E69AD",
"-X c #7067A9",
";X c #7168AB",
":X c #7169AD",
">X c #736CB2",
",X c #746DB4",
"<X c #746EB5",
"1X c #756FB8",
"2X c #7570B9",
"3X c #7671BA",
"4X c #7671BB",
/* pixels */
"%X X{.}.XX:X1X:X@X}.[.|.XX%X-X$X|.[.{. X$X-X$XXX{.[. X$X>X>X%XXX{.{.@X-X>X:X@X{.[.|. X%X-XXX|.[.{. X@X-X$X X{.[. X&X,X>X-X",
"@X|.[.[. X%X,X-X X{.2.}.@X-X-X@X|.[.[. X%X:X%X X[.1.{.XX:X<X@X|.[.[. X%X>X:XXX{.[.|.XX:X:X$X|.[.[. X&X:X&X|.[.1.[.XX-X,X$X",
"XX|.{.}. X@X%X@X X}.{. XXX$X%XXX|.{.{.XX$X$X X{.X.X.,.{.XX%XXX X{.{.XX@X%X@XXX{.{.|.XXXX%X@X|.{.{. X$X$X X[.:.X.,.[.@X$X@X",
"XXXXXXXX X X XXXXXXXXXXX X X XXXXXXXXXXX X|.[.X.X.` X.,.[. XXXXX@XXXXX X XXXXXXXXXXXXXXX X XXXXXXXXX X|.[.:.X.` X.,.[.XXXX",
" XXX-X%XXX}.[.{.XX&X;X@X X{.[.|.+X*X%XXX|.[.X.X.) ~ ) X.X.|.|.XX*X%XXX}.[.}.XX%X-X@XXX[.[.|.@X-X-XXX{.[.:.| / A ) X.:.[.{.",
" X%X<X:XXX}.[.{.XX:X<X&X X[.[.|.$X:X;XXX{.[.X.` A q d ) X.X.`.|.#XoX{.).X.`.|.&X1X%XXX[.[. XXX:X-XXX{.[.X.} ~ A / X.:.[.|.",
"$X-X<X<X-XXX|.XX&X,X1X-X@X X}. XXX%X+XXXXX{.X.] p 8 0 p W _ ]  ...-. .] W ..`.$X<X:X@X X|.XXXX$X$XXX X{.[.X.} ` } &.[.}.@X",
"-X>X2X<X:X-X$X%X-X<X1X,X;X&X@XXX|.|.|.XXXXXX).] r * * 6 9 w w I I I I w w ! ..#X1X<X-X%XXXXXXX{.|. XXX@X|.1.X.X.&.[. X%X-X",
"1X1X4X4X1X1X<X1X1X2X2X2X1X>X-X@X|.[.[.XX$X*X_.! 9       . . . % = % % $ % w  .|.,X1X<X>X*X#X|.[.[. X$X:X@X}.1.:.[.}.&X>X<X",
"1X4X4X4X1X2X1X4X4X2X2X1X<X,X-X|.`.X.X.`.'..X<._ 0 ; ; ; ; ; ; ; O ; ; O > q ] (..X.XoXoX.X.X{.`.{. X$X-X-XXX{.[.}.@X,X4X2X",
"4X4X4X4X4X4X4X4X4X4X2X,X-X$X|.1...E E W  . .| D c l j j j j z j j j j j l c D ` @.@. . ...(.).|. XXXXX@XXXXX X X@X-X>X4X4X",
"4X4X4X4X4X4X4X4X4X4X2X:X@X|.)...T w 7 9 w w Z N 5.8.8.9.9.9.9.9.9.9.9.9.9.5.N Z y y I I I ..(..X@XXX X{.}.XX@X%X;X,X<X4X4X",
"4X1X2X4X1X1X2X4X4X<X,X%X|.`.%.E w & .   . + 2 n 0.t.l.k.l.k.k.k.t.t.c.t.t.r.n 2 $ $ . . 6 T -..X-XXX{.[.{.XX-X<X1X1X4X4X4X",
"1X<X:X:X>X1X1X1X<X=X-X|.).X._ d 0 < , : , , z 4.r.z.b.v.n.n.n.n.n.m.b.v.c.t.3.l , > : : 2 d X.).{.{.{.[.{.@X:X4X4X4X4X1X<X",
":X%X@X@X-X,X<X,X-X$X X)...E p M c z b b b n 3.q.t.v.b.m.N.V.V.G.G.N.m.b.c.t.q.3.n n n b z D / [  .-.[.|.@X:X,X4X4X4X4X1X:X",
"%XXX{.|.@X:X1X:X$X|.[...Y 9 8 k m 9.q.q.q.q.r.g.l.v.n.G.H.E.E.E.J.J.G.b.c.l.t.r.q.q.q.q.9.m c w I  .`.@X-X,X<X4X4X4X4X<X;X",
"$X|.[.[.XX%X<X%X|.[.&.E w & ; h 6.t.v.v.v.t.v.v.v.v.M.G.W././.~.~.W.H.m.v.c.c.c.l.z.z.z.t.4.h O 7 ! (.=X1X1X1X1X1X1X1X>X$X",
"XX|.{.{. X@X&X X[.:.| Y 9 . O h 8.t.v.v.v.v.v.v.v.v.M.H.W././././.W.G.m.v.v.c.v.c.v.c.v.t.4.h X = I ...X:X>X1X1X1X>X-X%X@X",
" XXXXXXX XXX|.[.&.| ~ p 8   O h 6.t.v.v.v.v.v.v.v.b.m.H.W././././.W.G.m.v.v.v.v.c.v.v.v.t.9.h X & I ...X+X%X>X1X>X%XXXXX X",
"|.$X:X%XXX{.[.:.| / d q %   O h 6.t.v.v.v.v.v.v.v.v.M.H.Q././././.W.H.m.v.v.v.v.v.v.v.v.t.6.h O % i [ `.|.+X:X1X-XXX{.{.|.",
"|.$X:X*XXX{.1.X.` d 0 1 > O : z q.t.v.v.v.v.v.v.v.b.m.G.W.Q.~.~.~.E.G.m.v.v.v.v.v.c.v.v.t.9.z : * r ^ ..).|.%X:X%X|.[.[.}.",
"XXXX%X+XXX X{.:.` p 1 2 2 g j 4.q.l.v.v.v.v.v.v.v.v.m.N.G.J.J.J.J.H.N.m.v.v.v.v.v.v.v.v.k.q.3.j k M d ^ ..<.|.$X$X X|.}.|.",
" XXX|.|.XXXXXX)._ w * 2 l m 6.q.t.l.v.v.v.v.v.v.v.v.b.m.M.N.N.N.N.m.m.b.v.v.v.v.v.v.v.v.l.t.q.8.m c M r U ..<.{.|.XX+X+XXX",
"XX|.[.{.|.$X*X`.! 9 O f m 0.g.h.l.c.v.v.v.v.v.v.v.v.v.v.b.b.b.v.m.b.v.v.v.c.v.v.v.v.v.v.c.c.t.t.0.n k % 7 Y ..).|.XX-X;X$X",
"%X|.[.|.XX=X,X'.! 7   f 3.w.v.v.c.c.v.v.v.v.v.v.v.v.v.v.v.v.v.v.v.v.v.v.v.v.v.v.v.v.v.v.v.c.v.c.r.m f X = U ..).|.@X>X<X%X",
"-XXX X X%X=X>X'.! 7 X f 3.g.v.v.c.c.v.v.v.v.v.v.v.v.v.v.v.v.v.v.v.v.v.v.v.v.v.v.v.v.v.v.v.v.v.c.r.3.f X 6 T ..{.XX-X<X1X:X",
":X:X-X-X=X<X<X'.! 7 X f 3.w.v.v.v.v.v.v.v.v.v.v.v.v.v.v.v.v.v.v.v.v.v.v.v.v.v.v.v.v.v.v.c.v.v.c.r.m f . 6 R <.$X-X:X1X1X<X",
"<X<X>X<X1X1X>X'.! 7 X f 3.g.v.v.v.v.v.v.v.v.v.v.v.v.v.v.v.v.v.v.v.v.v.v.v.v.v.v.v.v.v.v.v.v.v.v.r.3.f . 7 ! '.>X1X1X1X4X1X",
"<X>X:X:X>X<X<X'.! 7 o g 7.j.n.n.v.b.n.b.v.v.v.v.v.v.v.v.v.v.v.v.v.v.v.v.v.c.v.v.v.b.b.n.n.n.n.n.r.e.g + 7 ! `.=X>X<X1X1X<X",
":X-X@X@X-X>X>X'.! 7 + k y.x.B.V.G.N.N.m.n.v.v.v.v.v.v.v.v.v.v.v.v.v.v.v.v.v.v.c.v.n.n.N.B.B.B.B.x.m k X 6 T ..$X%X:X<X<X:X",
"-XXX{.|.$X:X:X'.! 7   x y.f.E.E.J.E.H.N.n.v.v.v.v.v.v.v.v.v.v.v.v.v.v.v.v.v.v.c.v.n.B.H.E.E.E.E.A.y.4 + = Y X.{.XX%X<X<X-X",
"@X|.[.[. X-X:X'.! 6 + x i.F.~.~.~.~.W.G.M.b.v.v.v.v.v.v.v.v.v.v.v.v.v.v.v.v.v.v.n.m.G.W.~./.Q.~.F.u.x + = i { ,.{.XX-X>X%X",
"+X{.{.{.|.+XoX<.R 5 @ v i.P././././.Q.J.V.M.m.M.m.m.m.m.m.M.m.M.m.m.m.m.m.m.m.m.m.V.R.Q././././.L.i.x + & y ( $.:.{.XX%X@X",
"OXoX+X@XOXoXoX-.R = @ v i.K.^./././.~.W.J.G.G.G.G.G.G.V.V.V.V.V.G.G.G.G.G.G.G.G.V.R.R.~././././.K.u.x + $ 8 d ) $.:.{. X X",
"}.OX%X%XOX{.2.O.s =   4 p.K.^./././.~.~.W.W.W.W.W.W.W.W.W.W.~.~.R.E.W.E.W.E.E.W.W.Q././././././.K.i.x X   1 t A ) $.1.[.|.",
"OX@X>X:XOX{.2.O.s 6 @ G P K.Y.T.~././././././././.~./.~./.~././././././././././././././.^.!.T.Y.K.P B @ = 1 r Z / | &.[.|.",
"OX;X>X,X%XoX}.>.+.R s G K a.K.K.U.!././././././././././././././././././././././././././.!.P.K.C.p.K G I i s d / ' &.[.|.XX",
"%X:X2X,X=X*X+X]._.-.@.[ G G K a.D.Y././././././././././././././././././././././././././.Y.S.s.J G o.O.@.+.+.' { $.1.|.%X;X",
"<X2X2X2X2X<X=X=X=XoX].-.E e 4 H C.Y././././././././././././././././././././././././././.U.d.H 3 e E -.].].2.,.*.[.}.&X:X,X",
"2X4X2X2X4X4X4X4X2X2X=X<.R = # V d.U././././././././././././././././././././././././././.I.d.V # 6 R <.oX%XoX{.2.|.$X:X4X2X",
"4X2X4X4X4X4X4X4X4X4X=X(.R = @ C d.I././././././././././././././././././././././././././.I.s.v # & I =. X@XXX|. XXX-X<X4X4X",
"4X4X2X4X2X4X4X4X4X4X=X_.R = @ B d.U././././././././././././././././././././././././././.I.s.C # & I ..[.|.XXXX$X:X:X<X4X4X",
"4X2X2X2X4X4X4X4X2X4X=X(.R = @ G s.I.^.^.^.^././././././././././././././././././.^.^./.^.I.s.V @ $ w _ ,.{.XX;X<X<X1X2X4X4X",
"2X<X<X:X<X2X4X2X<X=X*X2.! y e G u.A.K.K.K.K.P.Y.T./././././././././././.^.!.U.P.L.K.K.F.Z.P B 1 9 T ..1.}.@X:X4X2X2X4X4X<X",
":X%X@X$X:X>X2X<X%X@X+X`.=. .W o.K P P i.P i.d.S.U././././././././././././.U.D.d.i.P i.P P K S p U ..;.}.XX-X:X4X4X4X2X<X:X",
"%X+X}.}.@X:X,X:X+X+X[.`._._.-.O./ B v 4 v B H d.L.^././././././././././.^.L.p.H B x x 4 x a S ( ..>.{.$X:X<X<X2X4X4X2X<X:X",
"%X}.2.{.@X&X,X-X+X2.2.{.oX+X.X=.I - + + + @ x P A.T.!.!.!.!.!.!./.^.!.!.Y.A.L x + X X X @ r E #.`.{.$X>X<X<X4X2X4X4X<X<X&X",
"@X}.{.{.}.+X%X+X[.*.$.,.}.+XoX<.! i 7 6 = - t K a.A.A.A.A.A.A.A.D.S.A.A.Z.p.C 3 + = % = 7 U [ 1.{. X$X%X:X<X<X2X<X,X:X-XOX",
"OX XXXXX XXXXX[.,.| } $.1.|.}.).-.+.Q R U s d G G J J J J J J J J J J J J G B 1 1 1 8 i U [ >.{.|.XXXXXX@X-X<X2X:X%X+XXXXX",
" XOX&X$XXX}.[.&.| / ~ ` | 1.[.[.'.'._.>.@.O.( a t 3 3 3 3 3 3 3 3 3 3 3 2 3 3 2 0 p Y ( $.<.}.@X%XXX}.{.|.@X:X<X;X+X|.[.|.",
"|.+X:X;X+X{.1.%.} S Z / | &.[.}.oX%X+XoX`.,.{ s 5 + . . . . . . . . . . % * 1 q t / } %.1.'.OX&X*X X{.).[.+X;X:X%X X[.[.}.",
" X@X%X$X X X[.,.$.` / } $.).{.{.{.}.}.}.{.{.;.W i 7 7 9 y y y 7 5 7 7 y y u s d / ' %.2.{.{.{.}.}.{.{.{.|.XX@X%X+X X}.{.|.",
"XX X X XXXXXXX{.1.X.| %.[.|.|.{.1.:.*.2.}.XX`.&.W T E Q +. .Q W Y Y ! !  . ...{ } %.1.|. X[.2.&.:.).}.oX+X X X XXXXXXXXXXX",
"+X|.[.{.XX@X:X@X{.,.&.1.|.%X$X[.$.) ' *.}.%X@X[.>.$.>.`.].].`.>.#.%.<.'..X}.).,.&.1.|.$X&X[.%.) ' :.}.*X%X X{.[.}.XX-X-X@X",
"@X X2.[.XX;X>X:XXX{.[.}.XX:X%X[.$./ ) *.|.*X%X X{.2.}.@X:X,X%X|.2.[.XX-X>X-XXX{.[.}.XX-X&X[.$./ ) &.}.*X%X+X[.1.}.@X:X>X%X",
"%X@X X X@X:X2X:X$XXX|. XXXXX X{.:.$.%.1.}.@XXXXX}.|.+X*X,X<X%X@X X+X@X:X1X,X$X X|. XXXXXXX{.,.$.%.1.{.+X+X X X|.XX%X,X2X-X",
":X:X&X&X:X,X2X,X:X&X$XXX X X{.{.[.[.}.[.|.}. XXX@X%X;X:X2X2X:X:X%X%X;X>X2X2X:X-X&XXX X|.}.{.{.[.[.}.}.}. X XXX%X-X,X1X1X,X",
"1X>X>X1X1X2X4X4X<X,X:X$X X[.[.}. X%X%X X{.2.[.XX-X:X<X2X2X2X2X2X,X,X<X2X2X2X2X<X:X@X X[.[.}.XX&X&X X[.2.[. X-X,X1X1X2X2X2X",
"1X,X:X>X>X1X4X2X,X,X:X@X X[.[. X@X:X-XXX|.2.{.XX%X:X<X<X2X2X1X:X:X:X<X2X2X2X>X:X:X&X X[.[.|.@X;X-X X}.[.}. X%X:X>X1X1X1X<X",
":X-X$X$X-X>X<X>X-X&X@XXX X X X X X+XXX X X X XXX@X@X%X:X<X2X:X-X%X%X;X>X2X,X:X%X@XXX X X X X XOXXXXX X X XXXXX@X%X:X1X1X:X",
"&X@X}. X@X:X<X,X$X X{. XXX$X$X@XXX{.}.XX@X%X@X X|.}.XX%X,X2X-X+X|. X@X:X2X:X%X X}. X X&X&XXX X}.}. X@X&X$XXX}.|.XX%X,X2X:X",
"@X}.[.[. X-X,X-XXX[.2.}.XX-X:X@X}.2.[. X%X:X-X X[.2.[.@X:X:X$X}.2.[. X-X,X-X+X[.2.}.XX;X:X@X}.[.[. X&X:X%XXX[.1.{.@X:X:X%X",
"@X}.[.{. X@X&X&X X}.[. XXX&X-XXX X[.[. X@X;X+X[.,.%.1.}.+X%X+X|.[.}. X@X%X%X+X{.[.}.XX&X-XXX}.[.}. X@X-X@X[.,.%.1.{.@X%X@X",
"XXXXXX XXX XXXXXXX X X XXXXXXXXX+X X XXXXX X[.:.$.} $.1.|. XXXXX XXX X X@X XXX X XXXXXXXXXXXXXXX X X X X{.,.| } $.1.{.XXXX"
};
