/* XPM */
static char *_a3129b74c864c3de611f5d78703c327OWkqPMhDasl0oTwp[] = {
/* columns rows colors chars-per-pixel */
"61 64 153 2 ",
"   c #020203",
".  c #060609",
"X  c #08070B",
"o  c #0A080D",
"O  c #0D0B12",
"+  c #120E16",
"@  c #120F18",
"#  c #13111C",
"$  c #19131D",
"%  c #22151B",
"&  c #161522",
"*  c #1A1624",
"=  c #1C1827",
"-  c #1D1A2B",
";  c #1F1D30",
":  c #231924",
">  c #2B1B24",
",  c #231C2C",
"<  c #2B1E2B",
"1  c #311E27",
"2  c #251F31",
"3  c #2E212F",
"4  c #35212A",
"5  c #39222B",
"6  c #232035",
"7  c #2A2236",
"8  c #26233A",
"9  c #2D253B",
"0  c #342536",
"q  c #3D2633",
"w  c #3E2837",
"e  c #31273D",
"r  c #32283F",
"t  c #3C293A",
"y  c #402730",
"u  c #422A36",
"i  c #452C3B",
"p  c #292741",
"a  c #2C2944",
"s  c #2E2C49",
"d  c #342A43",
"f  c #3A2D45",
"g  c #342E4B",
"h  c #3A2E49",
"j  c #32304F",
"k  c #3D314E",
"l  c #353253",
"z  c #3D3352",
"x  c #373658",
"c  c #393659",
"v  c #3C395D",
"b  c #3E3C62",
"n  c #462F41",
"m  c #473043",
"M  c #493245",
"N  c #44324B",
"B  c #4C364D",
"V  c #423554",
"C  c #4D3751",
"Z  c #4E3852",
"A  c #443758",
"S  c #46395A",
"D  c #4A3B5D",
"F  c #503A56",
"G  c #533D5C",
"H  c #433E65",
"J  c #4D3E62",
"K  c #433F68",
"L  c #543F61",
"P  c #4F4066",
"I  c #45426C",
"U  c #4B426C",
"Y  c #554164",
"T  c #584367",
"R  c #55436B",
"E  c #5A456C",
"W  c #474470",
"Q  c #4A4672",
"!  c #4C4876",
"~  c #4D4A7A",
"^  c #544772",
"/  c #5A4771",
"(  c #544976",
")  c #5D4A74",
"_  c #534C7C",
"`  c #5F4C78",
"'  c #5F507E",
"]  c #604E7C",
"[  c #604E7D",
"{  c #614F7E",
"}  c #61507F",
"|  c #534F82",
" . c #555185",
".. c #5C5184",
"X. c #575388",
"o. c #5A558D",
"O. c #5E5993",
"+. c #625080",
"@. c #625181",
"#. c #625182",
"$. c #635183",
"%. c #625283",
"&. c #645386",
"*. c #645387",
"=. c #655488",
"-. c #655588",
";. c #65558A",
":. c #64568A",
">. c #66568B",
",. c #61568C",
"<. c #66578D",
"1. c #66588D",
"2. c #67588E",
"3. c #67588F",
"4. c #675990",
"5. c #645A94",
"6. c #695A92",
"7. c #695B93",
"8. c #695B94",
"9. c #6A5C95",
"0. c #6A5C96",
"q. c #635D9A",
"w. c #6A5D98",
"e. c #6A5E98",
"r. c #6C5F9B",
"t. c #6C5F9C",
"y. c #67609D",
"u. c #65609E",
"i. c #6B619D",
"p. c #6C609C",
"a. c #6C609D",
"s. c #6D629F",
"d. c #6661A1",
"f. c #6D62A0",
"g. c #6E62A1",
"h. c #6E63A3",
"j. c #6B65A6",
"k. c #6F65A5",
"l. c #6D67AA",
"z. c #6F69AE",
"x. c #7065A5",
"c. c #7065A6",
"v. c #7066A7",
"b. c #7167A8",
"n. c #7167A9",
"m. c #7268AB",
"M. c #7269AD",
"N. c #6F6AB0",
"B. c #746BB0",
"V. c #726CB3",
"C. c #746CB1",
"Z. c #756DB3",
"A. c #7671BB",
/* pixels */
"L Y T / ) E G F B Z G ) ] ) ] ) ] ) ] ) L ) L L L L ] ] L L L G L ] E E G Z B Z G E ] ] ) ] ] ) ] ] E T G G T T E ] E T G ",
"/ / E ] ] T F i i M F E ) ] ] ) ] #.) ] ] ] ] L ] ] ] E ) ] ] ] E ] ] E F M u M F E ] ) ] ) ) ] ] ) ) ] ] E ] ) / ] ] E ) ",
") ) ] ] ) T F M i B F E ) / T Y J L L ` ] ) ] #.( L L L L ( ) ] ] ] ] T F M i B G E ) ] ] $.#.] ] ] ] ] $.$.$.] ] ) ] ) ] ",
"] ] ) ] ] E T Z B F T E / P C N V K L ` ) ] ) L L J N h J J L ] ] E ] L T F B F T E ] #.*.7.7.;.] ] } $.3.7.3.*.] ] ) ] ] ",
") ] ] ) ] E E T L T E ) / S d < < h J ) ` ` ] / J k 2 2 d A L #.] E ] E E T L T E ) ] ;.8.h.v.8.*.] *.3.r.v.r.<.} ] ) ] ) ",
") ) ) ] ) ] ) ) ) ) ` ` ^ V 7 @ # 7 V L ` ) ) E A e $ + 2 h J ) ] ] ] ] ] E E ] ) ] ] <.f.B.M.f.3.} &.9.b.C.v.9.] ] ) ] ) ",
"Y T E ) ) ) E E T E ` #.` A 6 O O 2 V ( / L J D h 2 , & 2 d V J L L ] E E E T E ) #.<.8.c.b.M.f.9.;.3.s.v.m.v.7.#.] ) E T ",
"F F L E ) E T G Z T ` 1.o.I 9 O O 2 V L ^ J f d e e e e e e e f A L E ] T F F T ] <.r.t.t.t.t.t.s.9.s.9.e.r.7.*.] ) E G F ",
"i M F T ) E G B M G ' y.y.Q a + O < V / J k 2 : , d V V h 2 * , d D L ] G B n G ] 9.b.f.e.3.3.e.x.m.x.r.7.;.} ] ] ) T Z i ",
"i i B L / E Z M i D ' f.f.~ a + O 2 V L J d & o $ e A J N 2 @ @ 2 V L L C n q C ) r.V.v.8.=.=.8.x.Z.M.r.>.] ] ] ] E G B i ",
"M B F T ) / T L G E %.i.y.U a + O 2 V R J e $ . @ , f V d 2 : - 7 d V h t 1 > n J ,.v.f.e.3.3.e.s.x.s.9.&.} ) ) ] ) T F B ",
"F F Y E ) ` ` ` } #.1.7...I 8 O O 2 V ^ J e $ X o $ , 2 e d d d e e 7 2 : $ % 0 D ..8.t.t.f.t.t.r.r.7.&.] ] ] ) ] E E T G ",
"E T E ] ] ] 1.e.f.i.8.;.` v 6 o O 2 V R D r $   . o O $ 2 d A A f 2 # O o o o , h ( =.8.f.M.M.h.9.-.} [ ] ] ) ] ) ) ) E E ",
"] ] ) ] ] #.9.v.C.v.e.;.( V 3 O + 2 V / L g , O .     . : d D D f , + o o o O : d D ( ..r.M.M.f.>.[ [ [ ) ] ] ) ] ] ] ) ] ",
") ] ) ] ] ] 1.e.k.f.i.9...H 7 O + 9 H $._ J d , $ + . . @ 2 g h e 2 2 , : , , 2 9 f V R ..t.f.8.] ] [ ] ) ) ) ] ) ] ] ) ] ",
"] ) ] ) ] } *.<.7.e.i.f.7.U p O + a Q 5.5._ J h 2 * o   o $ = 2 2 d h h N h h d e 2 2 z J ,.7.*.] ] ) ] ] ) ] ) ] ) ) ] ) ",
") ] ] ] ] ] ] } $.3.s.m.f.~ a @ # s ~ j.l.5.` P h 2 +   . . o @ 2 h J J L J J V 0 & + 6 A R ] ] ] ] ] ) ] ] ] ) ] ) ) ) ] ",
"T T E T T T E ] ] &.e.m.f.! a # # l | N.z.5.` P z p , @ O .   o , h J L ( ) / S 7 + O = f L ] ] ] ] ] T E E T ) ) ) ) ] T ",
"G G G G G L T E ) $.3.e.7.I 9 O # j | N.k.X.I k g g j s 2 & . . $ 2 d V J L ) S 9 + o , k G ] ) ] ] E T T G L T ) ) T T F ",
"M i i M i B G T ] } $.&...S 8 O # j | z.d.! g 2 p x W ! x ; o . O # = 9 V J L S 7 + o - h P ) ] ) ] E G F i F L T ] T F B ",
"u y y y u i F T ) ] ] ] ^ z < O & s | z.q.I 6 @ 8 b o.q.W s @ . . . X & e S L S 7 + o : h T ) ' ) ) T F i i M G T E T C i ",
"i i u i i M G T ) ] ) ] R z , O # j | z.O.b ; O & x | X.W x ; & O . . # e S / S 9 + o : j Y ) / E T G C M i i C G T F i i ",
"Z Z B Z B F T E ) ) ` ` R V < o # j | N.O.b ; . # ; x b b b x j 2 @ . + e S / V 2 + o - j T ) E G G C C F F B C F C F C C ",
"G T L T T T E ) ] ` ` ] R k < O # j  .N.q.b ; . o # & ; x b | ~ x ; X @ 2 J Y S 9 # o : h Y E L C i M F F L G B M i B F G ",
"E ) E ] ) ) ` ` ` ) ` ` R z 6 o # j | z.q.K ; o     . @ p W O.O.K p @ & 9 J R S 7 @ o = h Y E G Z i i B T E G B i i i G E ",
"G T E E ) ` ` ` ` ` ` ` R k , O # j | z.t.Q g = @ O . . ; x | | K j p a z J / A 7 + o , j Y E L F i i Z F G G Z B i M Z G ",
"Z F G E ) ` ` ` ] ) ` ` R z 3 + # j | z.j. .H d 2 & . . # ; j x b b b K ^ ( / A 9 + o : f Y ) R G F F Z Z B F C C F Z Z Z ",
"i i Z T ) ` ` ] ) ] ) ) T k , o # j | z.l.5.) D d , O   o O & ; l ! O.O...#./ A 7 + o , f R ) ) E E G F i i i F G T F B i ",
"i i Z G ) ] ` ) ) ) ) ) E B , o # j | N.z.O...R V 9 & O . . . # a ! y.f.9.;.` H 9 @ o = i Y ) ) ] ) T Z i i B F T T G C i ",
"M B F T ) ) E T G T T ) E N 6 o # j | N.l.o.U z h d a 8 - @ . O 2 l ! | ..,.*.J d # o = m Y ] ] ] ) T T F i F G E ] T F Z ",
"G G T E ) E G F B G T ) E k 6 o # j | N.d.~ x 7 a l H K s - o . & ; s b Q O.5._ j @ X : f T ] ) ) ] ) T G G G T ) ) T T G ",
") E ) ) ) T G i i i F E T k 3 o # j | N.q.W 9 & 8 H X.5.W p O . o O # 8 H o.k. .x & o = k T ) ) ] ] ) ) ) T ] ) ) ] ) ] E ",
") ] ) ) ] E F M i M F E R z < o # j | z.q.b ; O ; x  .O.~ l ; O o . . & b o.N.o.c & o = d A R ^ / ` ..] +.+.+.] ] ` ] ) ] ",
"] ) ] ] ) E G Z B F Y / R k 2 O # j | z.O.b ; o & 8 b W b x l p ; @ o - x o.N.o.c & . @ : d k D L ) #.#.<.8.<.#.] ` ) ] ) ",
") ] ] ) ] E E Y G T T ) R k < O # j | N.q.b ; . X & ; s x b ~ I s & O & b o.N.o.l =   o @ * 2 f D / #.<.t.f.9.5.+.` ` ] ] ",
") ) ) ] ) ] ) ) E ] ) ] R z 6 o # j | N.q.b ; . . . X # s W O.O.b 8 O - x o.N.o.c =     . . @ 9 V ^ #.7.v.B.v.8.%.] ` ) / ",
"T E E ) / ] E E E E ] } ` c 6 O # j | z.t.I a $ O .   o ; b | X.H p * 9 b O.V.o.c & . . o + : 2 f D L | o.q.5.,.] ] ] E E ",
"F G T E ] / Y G F T ] ;.*.H 9 O # j | z.j.| c 9 - @ . . & p x b z a d l | O.N.o.c & . O * 2 9 2 e d g z A K K ^ / ) T L F ",
"i B Z T ) E G B M G ] 9.q.Q a O # j | z.l.,.^ A r - O . o & ; 6 a g A U o.j.V.o.c * . $ 2 N V d 2 * * = ; 2 s A R / E Z M ",
"i i B G / E F M i F } s.j.~ s @ # j | N.M.8...R V 8 @ . . . . @ 2 k L ..5.N.V.o.c * X * d J D d , O o X X O - d J R G M u ",
"M M F T ) E T Z C R *.s.y.Q a @ # j | N.l.O.! S k d 8 - & O . o = 9 V ^ o.l.V.o.l = . & 2 V N d 2 & $ $ $ $ , e k V n 0 1 ",
"F G G E ) ] ] ] ` #.<.8.;.H 8 O # j | N.d.| S p d l c c p = o . @ : 2 z ~ y.V.o.x & . O * 2 e e e e d e d e e e e 7 < : $ ",
"E T E ) ] } ;.7.s.e.7.;.` A 6 O # j | N.y.Q p = 8 b | X.b 8 O   X O # p b O.N.o.l *   . o + : 7 f S J D D D h e : @ + o o ",
") ] ] ) ] *.9.v.B.v.e.=.( V < O # s ~ y.o.b 2 @ 8 b o.q.~ s & o .   . = b o.N.o.c =     . o @ 2 h L R R R R V 2 +     . o ",
") ) ] ) ] } 3.p.c.c.e.8.#.H 8 O O ; c ! W x p , p c Q ~ I x a ; * O . & b X.N.X.c =   o @ & , 7 d V V V V h d = O   o + * ",
"] ] ) ] ) ] *.1.e.e.t.f.5.K p O o & 2 g l g g g d g g z x b I b p & o - b o.N.o.x & . @ , e d e 9 2 2 < 2 < * + o   + , e ",
") ] ] ] ] ] } } %.5.t.M.k.Q a @ . . O @ - e V D V r - = s W o.o.b 2 O & c O.N.o.c & o * e V S d < @ O O o + o .   . & e V ",
"E E E E E E E ] ` =.t.b.l._ g & O o o + * d S G V 9 = & p W O.O.I a & p b O.N.o.x = o * d S S r & X         .   o + < h G ",
"G G G G T G T ) ) } 9.p.9.) S e < , 2 , 9 f N F N f 7 7 g c U W b x g b | d.N.o.x = . @ , d p < @           . + * 2 d i S ",
"B i M M i F G E } } } >.;.} U V k k k k k N N M N N N h g d a g x K ~ o.d.N.V.o.x =   o @ : * @ o           + , e N N N n ",
"i u y y u i C T ) ] ] ] } ) ) E T T T E G B n u n Z L J h 9 & = l ~ d.N.N.A.V.o.x =       . .               $ 9 A L G M i ",
"i u u u i i F T ) ] ) ] ) ] ] ) ) ] E E G Z M i m Z L L N 7 * = l W O.d.N.A.V.o.l &                   . O @ , d S L G M n ",
"B B B B B F T T ) ` ` ` ` ` ` ` ) T G F F B Z B B Z F Z N r e 9 g x I ~ O.l.V.o.c &                 o @ : 7 e n B F C B B ",
"G Y L G L T T ) ] ` ` ` ` ` ` ` ) G Z M M B G G G B M n N M V z l 9 8 l ~ q.N.o.c =                 O : d V V N n n B F G ",
"E ) ) ) ) ] ) ) ) ] ` ` ` ` ` ` E G B u i Z L E G B i i M Z L J f , O ; b O.z.o.c &                 @ 7 V R G B i u M G E ",
"L T E ) ] ) ) ] ] ) ` ` ` ` ` ` ) G Z i M B G Y G B M n B F L F e # o - c o.z.o.x &           o O # , e V G G B M n B C G ",
"Z F Y T ) ` ` ` ) ] ) ] ) ] ) ] E T G F B B B B B Z Z Z B Z B n 7 $ X * c o.m.o.x =         . @ , 7 d i M B F B C F B Z B ",
"i M C Y ) ` ` ` ] ) ) ] ] ) ] ) ] E E T L B B i M Z G Y G B n q % + X = c 5.z.o.c &         o = d V S N M i B B G L F B n ",
"i i B Y ) ` ` ) E ) ) ] ] ) ) ) ) ) ] / E F i u M F T E G B i 4 % + X * l  .j. .l &       . + 2 N R E G n u M F R E L B i ",
"M B F Y ) ) E T L T E ) ) ] ) ] ] ) ] ] E G B B Z G E ) T Z M u 4 + . + p b ~ v 8 @   o + $ < g D ^ E G C M B L E ) T F B ",
"G G T E ) E Y F B G Y E ` ` ` ` ` ` ] ) ) T G G G T E ) E T G N 4 $ . O & 8 s 8 = o   + - 9 h S L ) / R G G L T / E E G G ",
"T E ) ) ` T F M i M G E ` ` ` ` ` ` ) ] ) / E E ) ) ) ` ) / E S d * .   O @ # @ o   . = d A Y R / ) ) ) E E / / ] ] ] E E ",
"` ) E E T G m q 5 w B D R R T T R R R R R R R R E / ) ] ` ` ` P f = .               . * e A R R E R R R R R R E ) ] ) ] ] ",
"` ) P D z r 0 3 > 4 r w k k N k k k k k k k k V S J / ) ` ` ` L f = .               . @ 2 d k k h k k k k V S L T ) ] ) ] "
};
