/* XPM */
static char *_4fd5ad830f64ed6fca56ea8eb013e9aXQw1WNVjVZLb7Bw3[] = {
/* columns rows colors chars-per-pixel */
"61 64 84 1 ",
"  c #422935",
". c #452D3B",
"X c #472F40",
"o c #473041",
"O c #493245",
"+ c #4C354C",
"@ c #4D3750",
"# c #4F3953",
"$ c #503A56",
"% c #533D5B",
"& c #553F60",
"* c #564163",
"= c #584367",
"- c #574569",
"; c #5A456C",
": c #59486E",
"> c #5C4770",
", c #5D4A74",
"< c #5F4C78",
"1 c #604E7C",
"2 c #614E7D",
"3 c #614F7D",
"4 c #61507F",
"5 c #60517F",
"6 c #625080",
"7 c #625181",
"8 c #635283",
"9 c #625383",
"0 c #625384",
"q c #635285",
"w c #645385",
"e c #645486",
"r c #635688",
"t c #655488",
"y c #65578B",
"u c #66568A",
"i c #66578D",
"p c #67578D",
"a c #65588C",
"s c #66588D",
"d c #67588E",
"f c #67588F",
"g c #67598F",
"h c #675990",
"j c #675B91",
"k c #675B92",
"l c #685990",
"z c #685991",
"x c #685A91",
"c c #685B92",
"v c #685A93",
"b c #695B93",
"n c #695B94",
"m c #6A5C95",
"M c #6A5D96",
"N c #6A5D98",
"B c #6B5E98",
"V c #6C5F9B",
"C c #6C5F9C",
"Z c #6C609C",
"A c #6D609D",
"S c #6C619D",
"D c #6D619E",
"F c #6D629F",
"G c #6D62A0",
"H c #6E62A0",
"J c #6E63A1",
"K c #6E63A2",
"L c #6F63A2",
"P c #6F64A3",
"I c #6F64A4",
"U c #7065A5",
"Y c #7066A6",
"T c #7167A8",
"R c #7167AA",
"E c #7168AA",
"W c #7268AB",
"Q c #7269AC",
"! c #7369AD",
"~ c #736AAE",
"^ c #736BB0",
"/ c #746CB1",
"( c #746CB2",
") c #756DB2",
/* pixels */
"11111111>11&+..+&>;$O     .&:,43333,13,31&+..+%>;%O     O$=11",
"<<111>1>1;*%+..+$=&$O.    +%:,,1,31,,,>;=%+..+$=&$O.    +%;11",
"11,1>1>1&%%$++++#$$#@O++++$*:11,,3,13>=&$#+++@#$$#++O+O+$*,,,",
",,1,111;$+O+$%%$+OO@#&&&&&=:,1,13,3,,=&+O+#%%#+OO+$%&&&&=;,11",
"1,1,1,>*$. O$*=%...@%>>1>,,,,11,1,1,,=$. O$==$...+&;,>>,,,,1,",
",11,,11=%+.O$%*$+..$%*=>>11,1,,1,1,1,=%+.+#&&&@..@%=;>>11,1,1",
"11,111:;*$@@@$@@@@@@@#%=>1,1,,1,3,3,1>*$@+#$#@+@#@@$%=:,,1,1,",
",11,1,1:;=&$+O.+$&%#+.+%;,1,11,1,1,3,,;=&%+O.+%&&#O.+$;11,1,1",
">11,1,>141;$+. +%==$...$=>14;14413,1,1,,>&+..+%=;$+..#=,,,1,,",
"=>>1,111>11=%OO$&>>&$.+%;4=;*&=:,,3,1,1,,*$O.@=,;&+.+&;,>:===",
"%;,11,1>1>>;*%%&=1>=&$%=>1=%$@%;>1,1,1,1,;=%%&=>,=&$&=;,:&$$&",
"#*>1,111111>;;=;>,1>>;;>>>=$O.+=>,1,1,111,>;=>1>,,;;;;,,*@..+",
"+%,1444111144411111,1,1,1>&@..+%>33333411,111111,1>1,1,,*@..+",
"$=>14upt4114wuuw41,1,1,,1>=%++$=>33upue314wupw41111,1,1,=$++$",
"*;14ubHBt444lVHbw41,1,>41>>=%%=;,3umLBd313dAAme41,,1,1,1>=%%&",
">,13bY!Tbw4uV!!Ht4,1,14>111>::;:33mL!Ymw1uA!!Ab4,1,11,1,,,>>>",
",14uZH)TVu8vD~~Dp1,,,;:155;:>;114uZY)TBuebA!!Zu3,,,;,,,,,,;,,",
">3aZZZHHVMMVCDDne11=%%%*;:;*%*:4pvZHHHVZmmZPPb43,*&%&=,,;=&&>",
">5FJZZbZZYYDVvpe81=%@O@%;1=%+@=8HHZBbbLHTPmmuu31,*#+#&;,=%+$=",
"=rQ)Du9uZ~(TMu1111;%O.o$=:*@.O=eT~HpepVT)YZ44433=&. .$*;*+..&",
">aRRFbuuVRQDi6<>11;%@.O%=,=%+#;uYWDbpbBY!Ld3,3,,;&+.+$;,=%+#=",
"7aBCZZBMVGZvq<6611:*$$$*;,1;;15uVDVZBBBLZbe33,1,;=$#$*;,3,:,4",
"kkinDGWPCvi77<,<>1;;%%=;115ujZbbpnMYTYAbw443,33,,;=*==,15rjbb",
"Gk7uBW(QCt<111<<11112111:5uZQQLbqeMR)!Bu31143,,31,1,,111rZQ~P",
"DMinBIRGn71<<7>,>>11>111>14BLYLbpvVGRDM7,1,1,33,,1,11,,1rZYTJ",
"CDDBVCBnq1<<<><1111>1>1>114uVmVVVVVVVnu43,3,1,,31,1,,1,14ebBB",
"CGQRDnu711<<1111111>111111444pVLWRDvu711,111,3,,,1111,31335rZ",
"nG/QCu11<<1,1>;11>111>;1>;1144pL(QDi1,111,>,>,,3,,,>,:,,,333u",
"uMGDnq1,<<,;;**==11==%%%$&=>11tBGDn81,11,>=***>,,:*&&%&&=>>1u",
"7innu111<<1=%@+%*=>&$+O+++$=>14tnvu2111,1=&@@&=,>*$+@.++$&>34",
"167611,,<<,*$..@%1=%+.   .O%=111821111,1,*$..+&>:&O.   .+%=34",
"<<<<111,,>-%+..+%=&$..    O%;111,1,1,,,;=&@..O$=*$..    +$=33",
",1,11,1>=&%$@OO@$$$$@.+.O+$&=1>11,1,1;;&%#++++$$$#+OOO++$==11",
"1,1,,1,;%@O+$%%@+OO@$%&&$&==>11>,1,1,=%@O+#$%#+OO#$%%%%%*;:11",
",1,111,*$. O$*=%O..@*=,>>>>1111111,11=$o.O#==$O..+%;;,,>,,1,1",
"1,1,1,1=%O.O$&*$+..+&=;>14>1>1111,1,1=$O.O#==#+.o+%;;>,,,1,11",
",1,111>=&$@@$@$#@++#$$&=>41111>>1>>1,;&$++##$@+++#$#%=>111111",
"1,1,>11>;*%%+O.@$%%#@.+%=>>1>11111111;;**@+Oo+$%%#+O+%;,11:1>",
",4,1>1111>;&+..O%:=$...$*1>111>11>1>1111;*+..+%;=#O o#=,;1111",
";>,,11>>111*%O.$&>:%$.@$=,,====1>11>1;11,;$O.$*:;%+o+$;1:*=&*",
"&=,3,3,1>1>=&%$&=1>=&$$=;>;%$$%=,11,111,,;&$$%;,>=$$%==1=&$$%",
"$*>,3,3,111>;==;>,,>===>1:=$O.$=>1,111,11=;;;=,,1>>%=>>>=$OO@",
"+&>11331113314341,1,,,111;%@..+%>1111111111111111>11211;&@..O",
"$*,13uu331444eww14,43,1,14=$++$%>444u8411488i741>1>1>11>=%OO$",
"*;43umAZu44ebmBb43,31,1,4;;&%%*;,4eVZBu814pZZbe111>111>1>&%%=",
">;1edP!Pm44eZQ!Zd3,3,1,3:15;;;:,14pH~UB82eZYTZp2114>221>21;;:",
"113umY)TZuebZ))Ad3,,>>>>,55,:,1<4uVU(TZtepH~~Du111>=1>=1>>1=2",
";1umZPYAmZbmZPAbu3>:*&*=,,=**%:5uvVUUHZBvVDYHBu1>;=%===11&%%=",
";4ZYZBbBDDYCVvvq11=&$+@%>1=$@@;5ZPZmbZBPPZBbd411>&#+$&;,=&$#=",
"=eQQFu8pCQ(IMu1111=$O O$;>&@.O*eQ!Ad4uZQ)TBu4111=$O .$=,&@..&",
":uYQZbtuCWQDv41111=$+.+$==;$+@:uYQAmemZT)Zd333,1;%+..&=>=$+@=",
"4uZAZZZZGDDMu11,14>=$+$&;1>1::4uBZZABBZPZmu31,1,>=$@$&;,,,;:4",
"baaZZZUUCvue81111>1*=%*=114wbbbudbZZTYmbde41,1,11>=**;>14eujb",
"Fb5uBT)TVu111,1,1>1>1>1>11uBQTHjwuVT)QBu4311111,1>>>,1,1uZTQF",
"FZuuZUTHb81,,,1,11>1111111wBTTHbuuZUTZZ4,1111,1,1>4>1,11rZJQJ",
"FZZZZZZbu81,11,1>111>1;1>14tVVZZZZZZZZ411,1,,1,1>411,1,44uZZZ",
"VGTTHbt41111111111>1>111>126euVGTTFbue111,11,11,1,,111,1454uZ",
"vY(THu4>,111;:=1>1111=>1>11118vG)~Dp41111,,>,,,1,1,1>,>1,314a",
"pVUHb81111,:;=&=111=**%=%==:,1eVUDb81,1,1>:=*=>,,==&%&&*=:14u",
"7ubBu41>,1,=%@$%%>1=$+++++$%118ubbu811,1,=&$@%=,>=%++++@%&=44",
"17e711>111:=$.O+&::%@.   .+%;1114811111,1*#..@&>=&+.   .+%=14",
"1,1111111>;%+..+$;&$o     O%=11111,1,,,,=%+..O%==$.     O&=,4",
",1,,1>11*&%@@OO+$%%@+OOOOO$&;11,,11,1,**%$@O+@#%$#@OOO.@@&=44",
"1,1111>:%@++$%@$+O+@@$$%$%&:,1,11,,1,;%$++#$$@+++@$$$%%%*=>1,"
};
