/* XPM */
static char *_703d35a12c142ca877c1d1d30d32cd0u18fJv2Ghdo5iSF5[] = {
/* columns rows colors chars-per-pixel */
"64 64 216 2 ",
"   c None",
".  c #010000",
"X  c #090504",
"o  c #090808",
"O  c #120B0A",
"+  c #140909",
"@  c #0B0F17",
"#  c #0E1111",
"$  c #171818",
"%  c #1F1707",
"&  c #26170B",
"*  c #221312",
"=  c #281A15",
"-  c #341C1C",
";  c #292219",
":  c #1B1C21",
">  c #1D2222",
",  c #1E2828",
"<  c #262929",
"1  c #312924",
"2  c #3B2320",
"3  c #2C3233",
"4  c #283535",
"5  c #353E3E",
"6  c #373A3B",
"7  c #302F35",
"8  c #201D23",
"9  c #4F1818",
"0  c #641D1D",
"q  c #462929",
"w  c #473F3F",
"e  c #593B3A",
"r  c #4D352A",
"t  c #762424",
"y  c #623434",
"u  c #6C3B3B",
"i  c #673939",
"p  c #753E3E",
"a  c #7B3F3F",
"s  c #722D27",
"d  c #5E291D",
"f  c #37403F",
"g  c #57483B",
"h  c #54523F",
"j  c #6F493E",
"k  c #353F40",
"l  c #563F40",
"z  c #763F40",
"x  c #783F40",
"c  c #623F40",
"v  c #364242",
"b  c #3A4242",
"n  c #394849",
"m  c #3C5054",
"M  c #3C536C",
"N  c #40474A",
"B  c #584844",
"V  c #494953",
"C  c #4A5557",
"Z  c #55585B",
"A  c #674644",
"S  c #774242",
"D  c #794141",
"F  c #774B46",
"G  c #775848",
"H  c #695A53",
"J  c #6D6053",
"K  c #796758",
"L  c #595B64",
"P  c #4A6262",
"I  c #476261",
"U  c #576473",
"Y  c #616065",
"T  c #70727D",
"R  c #842626",
"E  c #883B3C",
"W  c #963A3A",
"Q  c #9A2C2C",
"!  c #AA3A3A",
"~  c #A43838",
"^  c #BF3738",
"/  c #B53A3A",
"(  c #BC3939",
")  c #BD3636",
"_  c #C13636",
"`  c #C13938",
"'  c #C23837",
"]  c #B44E36",
"[  c #986E35",
"{  c #CB433C",
"}  c #D34B3E",
"|  c #D3493C",
" . c #874844",
".. c #87594A",
"X. c #935449",
"o. c #BE4145",
"O. c #A85043",
"+. c #AB504A",
"@. c #89654C",
"#. c #976A54",
"$. c #97745B",
"%. c #906547",
"&. c #A4785B",
"*. c #A16958",
"=. c #B75A67",
"-. c #A85560",
";. c #816D61",
":. c #93796A",
">. c #AE7660",
",. c #A27A67",
"<. c #B37B62",
"1. c #AF6A62",
"2. c #D74F40",
"3. c #C75B4A",
"4. c #DC5441",
"5. c #DA5D43",
"6. c #CE4E46",
"7. c #E65E45",
"8. c #E95E44",
"9. c #D86951",
"0. c #EB6246",
"q. c #EC6748",
"w. c #EF6849",
"e. c #E36244",
"r. c #F16746",
"t. c #F06848",
"y. c #F46846",
"u. c #EC7657",
"i. c #D27676",
"p. c #EF7C63",
"a. c #BA8D32",
"s. c #B08837",
"d. c #CA9936",
"f. c #C59636",
"g. c #BA8567",
"h. c #A88871",
"j. c #AD8F63",
"k. c #CDA555",
"l. c #C8926F",
"z. c #CA9471",
"x. c #CB9773",
"c. c #D59D76",
"v. c #D69E78",
"b. c #C78F6E",
"n. c #E68A7A",
"m. c #EC846F",
"M. c #D5A07C",
"N. c #DAA27A",
"B. c #DAA177",
"V. c #C4AA7A",
"C. c #E0A67D",
"Z. c #476497",
"A. c #566F90",
"S. c #757684",
"D. c #77778E",
"F. c #5675A9",
"G. c #5376B5",
"H. c #506FA2",
"J. c #957E97",
"K. c #807E84",
"L. c #AE7A8F",
"P. c #7E838B",
"I. c #5F88D2",
"U. c #628BD4",
"Y. c #7292CD",
"T. c #8D8692",
"R. c #BB9C8A",
"E. c #A89287",
"W. c #8C88A6",
"Q. c #928CAC",
"!. c #989AA5",
"~. c #9B93B6",
"^. c #AA92B4",
"/. c #A9A5B7",
"(. c #B2A1BB",
"). c #C39587",
"_. c #C38A96",
"`. c #E99588",
"'. c #DDA884",
"]. c #D6B984",
"[. c #C4A592",
"{. c #D5AA96",
"}. c #D8B29B",
"|. c #E1AD89",
" X c #EABB9C",
".X c #E2B294",
"XX c #E7A992",
"oX c #D3AFAD",
"OX c #E5BCA4",
"+X c #EAB9B7",
"@X c #C090A1",
"#X c #E9C4AE",
"$X c #F2C6AB",
"%X c #F3C9AE",
"&X c #EAC9BA",
"*X c #F5CCB2",
"=X c #F6CFB8",
"-X c #FAD2B9",
";X c #F8D0B7",
":X c #A59EC6",
">X c #AAA2CB",
",X c #ABA8C2",
"<X c #BDADC5",
"1X c #BABBC9",
"2X c #B9B5D2",
"3X c #CBB8C4",
"4X c #CACBDB",
"5X c #CAC6DF",
"6X c #D6C9CF",
"7X c #EFD5CB",
"8X c #D9DAE9",
"9X c #CFCDE4",
"0X c #E6DEE9",
"qX c #E6E2E7",
"wX c #EAEAFB",
"eX c #E6E5F4",
/* pixels */
"                                                                                                                                ",
"                                            ^ ^ ` ^ ^ ` ^ ' ` ^ ^ ` ' ^ ` ^ ^ ` `                                               ",
"                                            ` ^ ^ ) ` ^ ) ' ) ` ` ) ` ) ^ ^ ` ^ '                                               ",
"                                  ^ ` ` ` ` 4.4.4.4.4.4.4.4.4.4.4.4.4.4.4.4.4.4.4.{ ) ` ` ^                                     ",
"                                  ` ^ ` ' ` 8.w.t.t.t.t.t.t.t.t.t.t.t.t.w.t.t.t.t.{ ' ` ` ` '                                   ",
"                                  ^ ` ` ` { 8.y.t.t.t.w.t.t.t.t.t.t.t.t.w.t.t.t.t.{ ` ` ` ` `                                   ",
"                            D z O.7.7.8.7.7.w.w.t.t.t.t.t.t.t.t.t.t.t.t.t.t.t.t.t.0.8.e.0.8.3.p D                               ",
"                            S z +.t.t.t.t.t.w.w.t.w.t.t.t.t.t.t.t.t.t.w.t.t.t.t.t.t.t.t.t.t.6.j z                               ",
"                             . .+.y.y.w.w.y.y.w.t.t.t.t.t.t.t.w.t.t.t.w.t.t.t.t.w.t.t.t.w.r.3. . . .                            ",
"                      . . & 5.r.8.t.w.w.w.w.w.w.t.t.t.t.t.t.t.w.t.t.t.t.t.t.t.t.t.t.t.w.t.t.y.q.r.O.x x                         ",
"                      . . & 5.y.t.t.t.8.y.w.t.t.t.t.t.t.t.t.w.w.t.t.t.t.t.t.t.t.w.w.t.t.w.r.t.t.y.O.x x                         ",
"                      d d s e.y.t.t.t.7.4.4.4.4.4.4.4.4.4.4.4.4.4.4.4.4.4.4.4.4.4.4.4.7.w.t.w.t.r.3.O.+. .                      ",
"                . . X ] y.y.y.t.r.t.t.2.) ^ ` ^ ' ) ' ' ) ' ' ' ' ' ' ' ) ` ` ^ ^ ^ ` { 0.w.t.t.r.t.t.q. .x x                   ",
"                . . X ] y.y.t.t.r.0.t.2.` ` ^ ` ' ' ` ^ ' ) ) ' ` ) ) ) ' ` ` ` ' _ ` ` w.t.y.y.t.t.w.0. .z x                   ",
"                . . X ] y.u.+X7X`.6.6.4.4.7.7.4.4.7.4.4.4.7.4.7.4.7.4.7.4.7.4.4.4.7.4.4.| { i.+X+Xn.t.e.d = =                   ",
"                . . X ] y.p.0XwXoX_ ) 4.t.w.t.t.t.t.t.t.t.t.t.t.t.t.t.t.t.t.t.t.t.t.t.0.` ) i.wXwX`.w.e.& . .                   ",
"                . . X +.u.m.qXwXoX{ ` 7.w.w.r.r.w.t.r.t.t.t.t.t.t.t.t.t.t.t.t.w.t.t.t.8.{ ' i.wXwXXXu.q.= . .                   ",
"                . . X T.+X6XeXwX+Xe.8.w.w.w.t.w.t.t.t.w.t.t.t.t.t.t.t.0.w.t.t.r.t.w.t.w.e.8.`.eXwX6X3XoX1 . .                   ",
"                . . X !.4X9XwXwX+Xw.w.w.t.t.t.t.t.t.t.w.0.t.t.t.t.t.t.t.r.t.t.t.t.t.t.t.r.r.`.wXwX8X5X2X< . .                   ",
"                  . o T././.8XeX+X0.w.r.t.t.w.t.w.r.t.t.t.t.t.t.t.t.t.t.w.t.w.t.t.w.t.t.r.r.`.8XeX1X/.!.< . .                   ",
"                      b v L 1X4XoXt.t.t.w.t.t.t.t.t.t.t.0.t.t.w.t.t.t.t.t.t.r.t.t.t.t.t.w.y.n.4X4XS.b b                         ",
"                      b v C 1X4X{.t.t.t.r.t.t.t.t.t.t.t.t.t.t.t.t.t.t.t.t.w.w.t.t.t.t.t.w.y.n.4X4XT f v                         ",
"                    p 1 > 6 ,X2X@X2.4.2.4.4.0.t.t.t.t.t.t.t.t.t.r.t.t.t.t.t.t.t.0.7.2.4.2.2.i.2X2XL : > e                       ",
"                z z p $ . $ ~.>XL.' ) ) ) ` 8.t.t.t.t.t.t.t.t.t.w.t.w.t.t.t.t.t.w.{ ) ) ^ ) =.:X:Xm . X y j a                   ",
"                p p p * . > ~.>XL._ ' ' ' ` 7.y.t.t.t.t.t.t.t.w.t.t.w.w.y.w.w.w.t.{ ^ ^ ' ^ =.:X:XV . o y a j                   ",
"                * * = G $.#.6 7 c _ ' ' ' ' 6.` 2.0.t.t.w.w.t.t.t.t.w.w.w.w.2.2.{ ' ' ^ ' ' W 7 7 G &.#.2 * *                   ",
"                . . X &.C.g.O . 9 ^ ' ' ' ' ' ' { w.t.t.w.w.t.t.t.w.w.w.w.w.2.' ^ ^ ^ ^ ' ` t . . ..C.c.= . .                   ",
"                . . X &.N.g.* + 9 ! / / / / ) ' ` 8.0.8.0.0.0.w.8.8.8.0.8.8.2.) ^ ( / / ! / t + o @.N.x.= . .                   ",
"                . . X &.N.l.p u l l l c x a / ' ` ` ` { ` { ` ` { ` ` ` { ` ` ' ^ E  .p l l l u u >.v.z.= . .                   ",
"                . . X &.C.z. .x l 7 k c x x ( ' ` ` ` ` ' ` ` ^ ' ` ` ' ' ' ' ' ^ E z S k 5 l x j <.C.c.; . .                   ",
"                  . X G #.%.F j F J J A c c -.=.=.W W W ! ! ! ! ! ! ! ! W W -.=.=.S g A Z J G x j ..#.@.= . .                   ",
"                      . . O p p #.).v.@.b N Q.>XQ.N 5 e D x S D S x x c b 6 S.:X:XL 5 B z.c.<.x a - . .                         ",
"                      . . + u p #.N.c.K k m Q.>XQ.N 5 g x z z z x x x A b b S.:X:XZ 6 B x.N.g.j a - . .                         ",
"                          O - - j c.N.h.$.:.3X9X/.< $ g >.>.>.>.>.>.<...$ $ S.9X5XE.;.,.c.N.$.2 - *                             ",
"                            . . r N.c.B.M.'.0XwX<Xo . g N.N.B.N.N.v.C.$.. . S.wXeX.XC.N.B.B.@.. .                               ",
"                            . . r c.c.c.c.'.7XwX(.$ o A N.N.N.B.'.v.N.&.O X T.wXeX.Xc.c.c.M.@.. .                               ",
"                                j X.X.g.N.N.=X7X-X[.[.}.$X$X$X$X$X$X$XOX[.[.#X7X7X|.c.z.X.X.F                                   ",
"                                  p z >.N.N.$X-X-X-X-X-X;X-X-X-X-X;X-X-X-X-X;X;X*XXXv.z.F E j                                   ",
"                                  y y #.l.l.#X%X%X;X-X-X;X-X*X$X%X=X;X;X;X;X*X$X$Xv.b.<.z e y                                   ",
"                                  X X r F  .l.N.].;X-X-X;X;X.XN.'.*X;X;X;X-X XN.v.#.D u + X X                                   ",
"                                  . . q z D z.N.'.=X-X;X-X;X|.c.M.*X;X;X7X-X XB.v...z y X . .                                   ",
"                                6 Y Y ..[ X...@.#.R.).{. X X|.v.N. XOX}.).).>.@...[ %.%.Y Y C                                   ",
"                            . . L wXwX].d.a.& . * p z *.v.B.v.B.v.v.N.b.x x 2 . X [ d.k.qXwX!.. .                               ",
"                            . . Z eXwX].d.a.& . + p p *.N.v.B.B.N.v.c.g.x x 2 . X [ d.k.qXwX!.o .                               ",
"                        . $ @.@.R.eXwX].d.a.g , q W ! 3.u.u.9.3.3.3.6.=.T.J.Z 8 < [ d.k.qXwXoX@.@...p p                         ",
"                      . . * b.c.OXwXwX].d.a.h f l ) ` 2.w.w.{ ) ' ` ) =.>X>XS.5 f s.d.k.qXwX7XN.C.*.p p                         ",
"                      $ # 1 z.'.}.8X8XV.a.s.h f B ` { } w.w.6.o.6.( o.=.^.:XT b f s.a.s.8X8X6XB.).,. . .                        ",
"                  D D R.}.}.(.,XT.P Z 3 % % 4 f g 5.e.q.w.w._.^.^.^.^.J.C V n 6 f ; % ; C Z T /.(.oXOX}.1 . .                   ",
"                D D D }.-X&X>X>XP.v v $ . . 3 v A q.t.t.t.w.@X>X>X>X>XW.b 5 5 b 5 # . o 6 6 U >X:X3X-X$X1 . .                   ",
"                d e e {.-X7X3X3XD.4 7 @ . o 3 v B 5.7.0.t.t.L.W.W.W.W.D.b b 5 b 5 # . o < 3 Y <X3X3X-X$X1 . .                   ",
"                . X o R.-X;X#X-Xh.o . . . o 3 v e ( ^ 2.t.t.G v b b b b 5 b b k 5 # . . . . B -X=X-X-X#X1 . .                   ",
"                . . o R.-X-X;X7Xh.. . . . . 3 b B ( ' 2.t.y.A 5 5 b b 5 b b v b f # . . . . B -X-X-X-X#X1 . .                   ",
"                  . o H ;.;.;.;.B . . : 4 4 > > ; 0 0 s X.X.:.P.S.N f 6 , 8 > > > < 4 , X . 1 K ;.;.;.K < .                     ",
"                      . X . . . . . . 4 I C # . . . . : b b !.9X1XC f < . . . . . n I m o . . . . . . .                         ",
"                      . . . . . . . . 4 I m # X . . . : b b !.9X1XC b 3 o . . . o n I m o . . . . . . .                         ",
"                                . . . q H A n v m Z.Z.H.F.F.Y.Y.Y.F.F.H.Z.Z.M v n B F g X . .                                   ",
"                                  . . q a D C I U I.U.U.U.U.U.I.U.U.U.U.U.U.F.P P F z i X . .                                   ",
"                                  . . q E  .H Z U G.G.G.G.G.G.G.G.G.G.G.G.G.U Z Z F a u + . .                                   ",
"                                  . . t ( ( / o.E # @ @ @ @ @ @ @ @ @ @ @ @ s / / ^ ^ Q X . .                                   ",
"                                  . . t ` ` ` ` Q X . . . . . . . . . . . . 0 ` ' ' ' ~ + . .                                   ",
"                                  . . 0 R R R R t X . . . . . . . . . . . . 9 R R R R t + .                                     ",
"                                      . . . . . .                           X . . . . .                                         ",
"                                      . . . . . .                           . . . . . .                                         ",
"                                                                                                                                "
};
