/* XPM */
static char *_1dd364e0b58402df2230c0a07f00f8a2CGd6H54iXxx905r[] = {
/* columns rows colors chars-per-pixel */
"61 64 150 2 ",
"   c #040203",
".  c #0A0506",
"X  c #0B0709",
"o  c #0E080B",
"O  c #130B0D",
"+  c #0F0B11",
"@  c #150D12",
"#  c #190E11",
"$  c #140F18",
"%  c #171017",
"&  c #1D1114",
"*  c #16111B",
"=  c #1B131B",
"-  c #211316",
";  c #25151A",
":  c #28171B",
">  c #26181F",
",  c #2C191E",
"<  c #151320",
"1  c #1C1622",
"2  c #1F1826",
"3  c #1F1B2B",
"4  c #231722",
"5  c #241923",
"6  c #2D1B22",
"7  c #231B2A",
"8  c #2A1E2C",
"9  c #331D23",
"0  c #331F29",
"q  c #251E31",
"w  c #291F31",
"e  c #2F202D",
"r  c #372026",
"t  c #392127",
"y  c #34212C",
"u  c #3C232B",
"i  c #272032",
"p  c #2B2234",
"a  c #2D253A",
"s  c #342434",
"d  c #3C2632",
"f  c #32263C",
"g  c #392738",
"h  c #35293D",
"j  c #3D2A3D",
"k  c #40262F",
"l  c #402731",
"z  c #422935",
"x  c #442C3C",
"c  c #2B2944",
"v  c #2E2D4A",
"b  c #352A43",
"n  c #3B2D45",
"m  c #322D49",
"M  c #3A2E49",
"N  c #3D314D",
"B  c #3D3351",
"V  c #3D3A5E",
"C  c #3F3B61",
"Z  c #452F42",
"A  c #402F48",
"S  c #473043",
"D  c #493145",
"F  c #44334D",
"G  c #4B354C",
"H  c #433553",
"J  c #4B3752",
"K  c #463856",
"L  c #4E3854",
"P  c #453758",
"I  c #463859",
"U  c #4B3B5C",
"Y  c #503A56",
"T  c #523D5C",
"R  c #423E64",
"E  c #4D3E62",
"W  c #533F62",
"Q  c #53405F",
"!  c #494166",
"~  c #47426A",
"^  c #4C436A",
"/  c #554164",
"(  c #584367",
")  c #55436B",
"_  c #5A466C",
"`  c #59486F",
"'  c #484571",
"]  c #494673",
"[  c #4D4978",
"{  c #594670",
"}  c #5A4770",
"|  c #564870",
" . c #574973",
".. c #544A76",
"X. c #5B4873",
"o. c #5C4870",
"O. c #5C4871",
"+. c #5C4972",
"@. c #5D4972",
"#. c #5D4973",
"$. c #5D4A73",
"%. c #5C4A75",
"&. c #5E4A75",
"*. c #5E4B75",
"=. c #5D4A76",
"-. c #5E4B77",
";. c #5F4B77",
":. c #5F4C77",
">. c #5F4C78",
",. c #604E7B",
"<. c #604E7C",
"1. c #60517F",
"2. c #5E5081",
"3. c #565288",
"4. c #58548B",
"5. c #5A558B",
"6. c #59558D",
"7. c #5E5992",
"8. c #615181",
"9. c #625181",
"0. c #635283",
"q. c #64558A",
"w. c #66578D",
"e. c #65598D",
"r. c #66588E",
"t. c #655B93",
"y. c #675B92",
"u. c #695B94",
"i. c #625D9A",
"p. c #645E9B",
"a. c #6B5E99",
"s. c #65609E",
"d. c #6C609D",
"f. c #6D619E",
"g. c #6E64A3",
"h. c #6A65A7",
"j. c #6B66A9",
"k. c #6F6AAF",
"l. c #7066A7",
"z. c #7167A8",
"x. c #7269AC",
"c. c #716BAF",
"v. c #736BAF",
"b. c #746DB3",
"n. c #756FB5",
"m. c #766FB8",
"M. c #7770B9",
"N. c #7772BC",
"B. c #7974BF",
"V. c #7974C0",
/* pixels */
") :.>.>.-.+._ / T L K H F H K T T K H F M j d u 0 9 , : : : : : : : : : : : : y x G T T T T W W <.o.,.,.<.,.+.<.,.+.,.,.,.",
") :.>.>.>.-.+.+.} _ ) ( ) ) _ _ _ ) ( ) U D x u u t t 9 t t t 9 r r 9 r r r r z G W W <.} } _ _ ,.,._ ,.o.,.<.+.,.,.o.,.,.",
") :.>.>.>.>.>.>.,.-.,.-.,.+.+._ _ ( ( ! E L D S D x x D x x x z z z z z k u u x F U E W } =.<.,.,.,.,.,.+.,.<.o.( ( _ <._ ",
") :.>.>.>.>.>.>.-.,.-.,.,._ W T L F M M M I / ) _ _ ( ( Q Y G G G G G D x z u u g n M H W } <.-.,._ ,.,.,.<.( ( T T W ( _ ",
") >.>.>.>.>.>.>.>.>.>.>._ ( Y D x s e 3 a V ..e.y.y.y.e.1.$.( T T / T L D x u r 8 4 7 b R W =.>.o.,.X.,.,.+.( T G D Y ( ,.",
") -.>.>.>.>.>.>.>.-.>.X._ T G x y 6 = + 3 V 5.b.m.m.n.v.d.r.,.` >.+.+.( L x u 6 ; O + q M E ,.=.o.,.<.<.,.+.( L x z D T _ ",
") >.>.>.>.>.>.>.-.} ) E U I J G S f a i v ~ p.m.B.B.B.m.z.u.1.,.1.,.:._ T G x y 5 # $ 5 b H E E W } <.} ,.+.( Y D D G T _ ",
") >.>.>.>.>.>.>.-.W K M b N U _  .^ R C ] 6.h.N.B.B.B.m.z.u.8.1.,.+.:.` ( T G x 0 4 ; 4 8 p b P W ,.<.,.+.+._ W Y Y T ( o.",
") >.>.>.>.>.>.>.X.E b q 3 m E 5.a.a.u.t.i.h.m.N.B.B.B.M.z.u.<.,.,.,.,._ _ ( ( G x 0 9 , ; = 7 b E 2.O.9.O.,.,.T ( ( T o.,.",
") >.>.>.>.>.X. .) H a < < v [ h.B.M.m.m.m.N.B.B.B.B.B.M.z.u.<.,.,.` ,.,._ ,._ T G z 9 , # o @ 8 F W W O.W ,.,.,.,.<.,.o.,.",
") >.>.>.>.} ) U H B m a c C 6.b.B.B.B.B.B.B.B.B.B.B.B.M.z.u.<.,.,.+.,._ _ ( T L S z 0 9 - # $ 6 f H E W W 0.,.,.,.,.o.,.,.",
"{ >.>.>.-.) P M a c B C ] 3.p.b.B.B.B.B.B.B.B.B.B.B.B.M.l.u.<.,.,.,.,._ ( Y G D z k k 9 6 ; ; > 7 w b H W 9.,.<.,.,.,.,.,.",
"} -.>.>.-.E M 7 < a C 3.s.j.b.N.B.B.B.B.B.B.B.B.B.B.B.M.z.u.<.,.,._ ,.( Y G x z k k u t 9 9 , ; = $ 7 b U W 0.2.,.o.o.,.,.",
"} -.-.X._ U b 7 < c ' p.N.V.N.V.B.B.B.V.B.B.B.B.B.B.B.m.l.u.0.,.,.<.,.W Y D z k k u t t t t 9 ; @ o * w H W W 9.,.,.,.,.( ",
"+.+._ / T I B m v C 3.j.N.V.V.V.B.B.B.B.B.B.B.B.B.B.B.m.l.u.,.,.,.,.` _ T Y D x z k u 9 9 : ; - # # = w f H L W T ,.,.W T ",
"_ _ / Y G J E ~ [ 4.s.b.V.V.N.V.B.B.B.B.B.B.B.B.B.B.B.m.l.u.,.,.+.,.,._ _ W Y G x z u 9 : & # & ; : : 4 5 w b G ( o.W T G ",
",.( T D x G _ 5.g.v.n.N.N.N.B.B.B.B.B.B.B.B.B.V.B.B.B.m.l.u.,.,.,.,.,.,.,.o._ T G z t , # o o # ; 9 6 ; @ $ 7 b E o.W G x ",
"_ ( Y x y Z _ a.m.B.B.B.V.V.V.B.B.B.B.B.B.B.B.B.N.m.N.v.f.w.,.,._ o.( _ ( _ ( T D z t , - O . # ; 6 : # o . * b E o.W J D ",
"+._ H g 6 g ^ p.N.B.B.B.B.B.V.B.B.V.B.B.B.B.B.B.N.v.l.d.u.w.<.,.( T T Y Y Y Y G x z t 9 : - # - - ; & O . . < f E } ( T L ",
"` W A w * p R 7.m.B.B.B.B.B.B.B.N.V.B.B.B.B.B.B.v.l.u.r.q.,.<.` ( Y D D D x x z z k t 9 , , : - # O o .   . < b E } o.( W ",
"X.! n 2 o 3 V 7.N.N.B.B.B.B.B.B.B.B.B.B.B.N.B.N.z.a.q.,.,.,.,.+.Y x z k k k 9 k k k t t t 9 9 - O .         < b T ,.<.o.<.",
"_ / N q @ q R 7.N.V.B.B.B.B.B.B.N.N.m.b.v.b.b.v.d.0.,.( ( ( ( T Y x k k 0 9 9 9 t t t t 9 9 , , # O . .   . * s G W ( <.#.",
"_ / F s > a ! t.b.B.B.B.B.B.B.B.N.x.z.d.d.d.d.a.0.,.Q Y G L G G x k k t 9 : - : , t t t , - - - # & # .     # 8 n L T ( o.",
") ) J g y j ) p.N.B.B.B.B.B.B.B.m.x.d.r.q.q.q.8.,.Q G x x x x z z k t t : # O & , t t , - O O # : : ; # o   $ 4 0 Z Y T o.",
"/ ( L S l D -.a.b.N.N.N.N.B.B.B.b.d.r.,.,.,.,.+.Q G x u u l t l k t 9 , - O . O - , 0 : - . . # : 9 , & O   O ; 9 l Z T _ ",
"N K F Z Z T -.y.j.x.x.x.x.b.b.B.m.a.1._ Q / Q T G x r , 9 9 t t 9 9 : : - - O # & : , - # O O - - , , - # O # & , 9 j L ( ",
"w f n F L W -.0.a.a.a.a.d.l.v.N.v.r.+.Y G G G G n 0 5 - : 9 t t 9 : & & & & - & & & & & - - - - # & & & & - - # # ; s P W ",
"$ 1 a F T _ ,.0.0.0.0.8.r.a.l.m.x.8./ D z x z z 0 ; # O & , 9 t , - O O & : , : & O o # - , , - # X O # , , , & O @ 7 M ) ",
"  + i H } >.,.<.8.8.<.0.0.u.d.x.d.1.Y z u t u t , # o . # , 9 9 : # . o & : 9 : & o . O ; , , ; # . o & , 9 ; # X X 3 M E ",
"  + w B } >.0.q.r.r.r.r.r.r.r.r.1./ G k t 9 , : ; - # # ; , t 9 : - # # & : : : - # # & - : : - & # # & ; ; # O   X 2 M E ",
"  + w H  .0.w.a.l.l.l.l.a.r.<._ T G x u t , - # # - ; ; , 9 u t 9 , : & & # O & - - - - & # & & - : - & # @ O X   X 7 M E ",
"  + q B } 8.u.j.b.b.b.b.x.r._ G x z k u 9 - O o O - , 9 9 0 t l t t t , - O o O - , , : & . . # : , , - @ X       X 7 B W ",
"  + q M ( ,.u.x.N.N.M.M.x.,.( x k t 9 9 , & # . O - , 0 0 d l l k k t 9 : # o O - , , , # o O # - 9 , - O .       . 7 b W ",
"  X 5 j Y ` e.l.M.M.v.l.a.,.Y z 9 9 , ; ; - # @ & & ; 5 0 d Z D x k t t : - # & - - - - & # # & - - - - # # O X   O 3 M E ",
"  . = y x T ,.d.M.m.l.a.1.+.Y z 9 9 - # # # ; ; ; & # # 8 x P Y D x k t t , : - & # O & - - : - # O # & - : & O . X 7 M E ",
"  . & 9 k G ,.f.m.x.d.1.+.( D k 9 : # . O & , 9 , # o O 7 M W ( Y x k k t 9 t : & O . O - 0 , : # . O & , 9 : # . . 1 n ) ",
"  . & : k z ( 1.a.u.,.,.( Y D k 9 : # O O - , , , ; = < a H ) } W G x l k 0 9 : & O o # - , , - # X O # : , : & O @ w A E ",
"    & : t x G ( ,._ ( Y G D z k t 9 : - & # - - ; 5 i f M E ) } / T J Z t 9 ; & & # & & & - - & - # - # - - & & # ; s F ) ",
"  . O : t k x x Y G x x z z k u k 9 , , ; - @ @ 1 p M U E ) } -._ _ / J s > O # - , , - & O O & - , : - # O # - ; 0 j K ) ",
"  . & : t k k k k k z l k u k u t t k 9 6 - O o 4 b U } } -.,.,.+.+.} I f = . O - , 9 ; # o . & : 9 , - O   O - 9 y Z T _ ",
"o O & - , 9 9 t k t u u u t u u k 9 9 9 : ; 1 1 p B E >.>.>.,.} _ W I M s 1 O @ & , , ; & O O & - : ; O .   O - 9 u S T _ ",
"- & - & & - , t t t u u t u u u t , : & - 6 p b B E } >.>.>.=.) U M b w 5 : - & & & # & - - & & - & # O .   O - 9 l D Y _ ",
"9 : - # o # - 9 t k t k u u t u 9 : & O * p M U W ) X.>.>.>.>.) H w 1 * ; 5 , : & O O @ - , , - # O .       X - 9 u D T ( ",
"r , - # . o & , t t t t u t t t 9 - # . * a I } =.>.>.>.X.X.} E b 3 @ o & : 9 : # . . O - , 9 ; # X X .     O - , u Z L ( ",
", : - # # # & - , , 9 k k 0 9 , : ; # @ 5 b U +.>.>.>.X.) E P M a 4 @ # & ; ; & #     O # - : , 4 4 1 * $ @ # & ; 6 s Z J ",
"& # & - - - - & # - , 9 9 , : & # # - ; y Z U -.>.>.>.X.E N a 8 5 4 ; ; - # # O X       O O = 7 p b h y 6 ; - & & & 6 g Z ",
"o O # : , , & O o # : 9 9 , & o o # ; 9 d D W ,.>.>.=.} H a < $ ; 4 9 , & # . .             @ w b U I S d 0 , & O o & 6 y ",
". o # : 9 , - O . O - , 9 : O . . @ ; 9 d D T ( ) ) ) E M w * $ 4 9 y 0 , @ .               X 7 N / / G x t , # o   # , y ",
"& # & & ; ; # # # # - - - # o     O # - 0 g D Y J K M M b p w w s n Z x 0 ; # O .           o 4 g J G D z u , & . . = p j ",
": ; & & # # & ; : ; & # O o .       X O = 0 g Z j s w 8 p f M B H L T J x 9 , & O           X - p x x x z t , - o . = a F ",
"t 9 ; # . O - , 9 , # o .             . O - 0 u 8 ; $ $ w M E ) _ _ _ T G x 9 , # .         . # 6 t d u u t , & . X 5 b U ",
"z u , & O O # : , : & o .           . . O - , , , ; = $ q B ) -.o.o.) T G x k , & .         O # - 9 9 9 9 , ; & O O 7 N ( ",
"D Z g 6 = & # - - & & & # O .     . O # & & - - 4 7 w a N U _ -.( W Y G x z k , & .   . o # # & - - - - - - - & - ; s H ) ",
"L L S d 9 ; & # O # - : : & O     O & , : # # # ; p M P E ) X.} W L D x l k t , # o   o # : : - & O X O O O # = ; 6 g J ) ",
") _ L x y 9 - O . O - , 9 ; #   . # & 9 , - O . 1 f P _ _ } -.) T Z l k 0 k 0 , & . . O ; 9 9 ; = X   X . X @ - 6 d D T _ ",
") _ T J x d 6 = O # & : : : & O O # , , , - O $ 1 p M I U I U H n d 9 , 9 , , : & O O - , 0 9 9 > * * * * < 5 y d D G W _ ",
"W _ W T J Z s 9 - & & & & & - & # ; # & & & # ; 4 8 w c a f a w 4 4 = & & # & & ; # > , 9 0 k k s a f f f f b S G J T ( +.",
"W ,.,.W W T Z d , : # O O # - , : ; # O O & ; , , ; = $ $ < $ $ @ @ X X o o o # # , , 9 9 0 k x F H E U U U W T ( ( _ _ ,.",
"} ,.,.,.,.W Y x k 6 ; $ @ = 6 0 0 6 $ @ $ ; 9 u 9 ; @ X X + X + X X X X X X X $ 5 0 d l k k z L W W ,.#.o.X.,.o.,.-.-.,.,.",
"W ,.,.,.,._ T G x x b p a a j Z x b c a f f j Z j q 7 1 1 1 1 1 1 1 1 4 1 1 7 q n A L L G D G T <.w.q.9.9.<.o.,.-.-.-.-.,.",
"_ ,.,.,.,._ W Y U E E E ~ R E U U U E R R E U Y J H M M b b b b b M b b b M M B W X.=.} W T W <.q.a.a.w.1.,.,.,.,._ ,.,.+.",
"W <.,.,.,.,.,._ _ -.5.y.7.y.2.X.#.0.t.p.i.0.,._ W W E E E W W E E E E W E E E -.q.u.g.u.0.o.#.q.f.x.z.a.0.,.,.,.,.,.,.,.,.",
"W ,.} ,._ +.-.<.1.r.a.x.x.l.u.8.q.u.g.b.l.a.0.,.=.o.o.o.o.,.=.,.,._ o.o.o.,.8.t.f.x.b.g.u.w.q.u.g.n.z.a.w.,.+.,._ _ +.+.+.",
"W ,.W T W ( -.8.u.u.a.l.l.g.a.a.u.a.a.l.a.u.0.,._ _ W W ( _ #.#.o.W T ) =.0.t.a.f.f.g.f.a.u.u.a.f.g.a.u.<.,.` _ W T ( _ +."
};
